<svg xmlns="http://www.w3.org/2000/svg" viewBox="0 0 53 59" fill="none">
  <path d="M15.84 25.79c-3.9-3.2-8.19-6.74-10.47-8.63l-1.6-1.31c-1.1-.92-2-2.53-.1-3.64C4.49 11.73 18.4 3.75 23.53.78a5.82 5.82 0 0 1 5.82 0l9.83 5.67a1.16 1.16 0 0 1 0 2l-23 13.19a2.53 2.53 0 0 0-.34 4.15Z" fill="#EDB716"/>
  <path d="m21.59 35.14-9.37 14.27a2.31 2.31 0 0 1-3.1.74l-6.21-3.58A5.82 5.82 0 0 1 0 41.57V17.71a5.8 5.8 0 0 1 2.34-4.66c-1.67 1.28-1 2.72.1 3.64l18.68 15.39a2.31 2.31 0 0 1 .47 3.06Z" fill="#327D8C"/>
  <path d="M37.05 33.41c3.9 3.21 8.19 6.74 10.47 8.63l1.6 1.31c1.1.92 2 2.53.1 3.64-.82.49-14.73 8.46-19.86 11.43a5.84 5.84 0 0 1-5.83 0l-9.82-5.67a1.16 1.16 0 0 1 0-2l23-13.19a2.53 2.53 0 0 0 .34-4.15Z" fill="#327D8C"/>
  <path d="M31.3 24.06 40.67 9.79a2.32 2.32 0 0 1 3.1-.74L50 12.63a5.85 5.85 0 0 1 2.92 5V41.49a5.82 5.82 0 0 1-2.34 4.67c1.67-1.29 1-2.73-.1-3.64L31.76 27.12a2.32 2.32 0 0 1-.46-3.06Z" fill="#327D8C"/>
</svg>
