<svg xmlns="http://www.w3.org/2000/svg" viewBox="60 80 392 392" role="img" aria-labelledby="title desc">
  <title id="title">dwarvenpick mark</title>
  <desc id="desc">Gold dwarven pickaxe with forged ring.</desc>
  <defs>
    <linearGradient id="ringGold" x1="0" y1="0" x2="1" y2="1">
      <stop offset="0" stop-color="#f7cf66"/>
      <stop offset="0.55" stop-color="#ce8c1e"/>
      <stop offset="1" stop-color="#7d3f0d"/>
    </linearGradient>
    <linearGradient id="metalGold" x1="0" y1="0" x2="0" y2="1">
      <stop offset="0" stop-color="#f9e08a"/>
      <stop offset="0.35" stop-color="#c88415"/>
      <stop offset="0.7" stop-color="#8f4b10"/>
      <stop offset="1" stop-color="#5d2d0f"/>
    </linearGradient>
    <linearGradient id="shaftGold" x1="0" y1="0" x2="1" y2="1">
      <stop offset="0" stop-color="#f3d374"/>
      <stop offset="0.55" stop-color="#b36d1a"/>
      <stop offset="1" stop-color="#7c4416"/>
    </linearGradient>
    <filter id="softShadow" x="-40%" y="-40%" width="180%" height="180%">
      <feDropShadow dx="0" dy="9" stdDeviation="8" flood-color="#2a1306" flood-opacity="0.4"/>
    </filter>
  </defs>

  <g filter="url(#softShadow)">
    <circle cx="256" cy="286" r="176" fill="none" stroke="url(#ringGold)" stroke-width="18"/>

    <g fill="none" stroke="url(#ringGold)" stroke-width="9" stroke-linecap="round">
      <path d="M112 206h26m32 0h26m32 0h26m32 0h26m32 0h26"/>
      <path d="M108 250h26m32 0h26m32 0h26m32 0h26m32 0h26"/>
      <path d="M108 332h26m32 0h26m32 0h26m32 0h26m32 0h26"/>
      <path d="M112 374h26m32 0h26m32 0h26m32 0h26m32 0h26"/>
    </g>

    <path d="M66 184c74-70 134-94 190-96l24 34c-66 7-114 26-176 84z" fill="url(#metalGold)"/>
    <path d="M446 184c-74-70-134-94-190-96l-24 34c66 7 114 26 176 84z" fill="url(#metalGold)"/>

    <path d="M256 106l40 18v34h-80v-34z" fill="url(#metalGold)"/>
    <path d="M244 126h24v20h-24z" fill="#22110a" opacity="0.6"/>
    <path d="M256 152l28 16v170l-28 58-28-58V168z" fill="url(#shaftGold)"/>

    <path d="M238 188l18 18 18-18" fill="none" stroke="#542d14" stroke-width="8" stroke-linecap="round"/>
    <path d="M238 228l18 18 18-18" fill="none" stroke="#542d14" stroke-width="8" stroke-linecap="round"/>
    <path d="M238 268l18 18 18-18" fill="none" stroke="#542d14" stroke-width="8" stroke-linecap="round"/>

    <path d="M256 386l26 30h-52z" fill="url(#metalGold)"/>
  </g>
</svg>
